<svg width="28" height="28" viewBox="0 0 28 28" fill="none" xmlns="http://www.w3.org/2000/svg">
<path d="M14.291 20.1211L15.4531 20.3555L15.3457 21H11.5078L12.9727 12.6992L12.084 12.4648L12.1914 11.8203H15.7559L14.291 20.1211ZM13.4707 8.61719C13.4707 8.19401 13.6172 7.83919 13.9102 7.55273C14.2096 7.26628 14.5645 7.12305 14.9746 7.12305C15.3913 7.12305 15.7428 7.26953 16.0293 7.5625C16.3223 7.84896 16.4688 8.20052 16.4688 8.61719C16.4688 9.02734 16.3255 9.38216 16.0391 9.68164C15.7526 9.97461 15.3978 10.1211 14.9746 10.1211C14.5579 10.1211 14.2031 9.97786 13.9102 9.69141C13.6172 9.39844 13.4707 9.04036 13.4707 8.61719Z" fill="currentColor"/>
</svg>
