<svg width="230" height="221" viewBox="0 0 230 221" fill="none" xmlns="http://www.w3.org/2000/svg">
<g clip-path="url(#clip0_2_45)">
<mask id="mask0_2_45" style="mask-type:alpha" maskUnits="userSpaceOnUse" x="0" y="155" width="230" height="66">
<rect y="155.839" width="230" height="65" fill="#D9D9D9"/>
</mask>
<g mask="url(#mask0_2_45)">
<path d="M225 191.996C225 266.977 175.271 326.354 115.5 326.354C55.7292 326.354 6 266.977 6 191.996C6 117.015 55.7292 57.6382 115.5 57.6382C175.271 57.6382 225 117.015 225 191.996Z" stroke="#824DF4" stroke-width="8"/>
<ellipse cx="115.5" cy="191.996" rx="101.5" ry="139.577" fill="#824DF4"/>
</g>
<path d="M40.3438 207V170.636H56.0398C58.7386 170.636 61.1001 171.128 63.1243 172.11C65.1484 173.093 66.7228 174.507 67.8473 176.354C68.9718 178.2 69.5341 180.414 69.5341 182.994C69.5341 185.598 68.9541 187.794 67.794 189.582C66.6458 191.369 65.0301 192.719 62.9467 193.63C60.8752 194.541 58.4545 194.997 55.6847 194.997H46.3097V187.327H53.696C54.8561 187.327 55.8445 187.185 56.6612 186.901C57.4898 186.605 58.1231 186.137 58.5611 185.498C59.0109 184.859 59.2358 184.024 59.2358 182.994C59.2358 181.953 59.0109 181.106 58.5611 180.455C58.1231 179.792 57.4898 179.307 56.6612 178.999C55.8445 178.68 54.8561 178.52 53.696 178.52H50.2159V207H40.3438ZM61.6506 190.31L70.7415 207H60.017L51.1392 190.31H61.6506Z" fill="white"/>
<path d="M173.344 207V170.636H183.216V199.045H197.918V207H173.344Z" fill="white"/>
<path d="M81.4318 202H72.9091L82.5114 172.909H93.3068L102.909 202H94.3864L88.0227 180.92H87.7955L81.4318 202ZM79.8409 190.523H95.8636V196.432H79.8409V190.523ZM134.281 172.909V202H127.69L117.179 186.716H117.009V202H109.111V172.909H115.815L126.156 188.136H126.384V172.909H134.281ZM152.61 202H141.417V172.909H152.497C155.489 172.909 158.074 173.491 160.252 174.656C162.44 175.812 164.126 177.478 165.309 179.656C166.502 181.825 167.099 184.424 167.099 187.455C167.099 190.485 166.507 193.089 165.323 195.267C164.14 197.436 162.464 199.102 160.295 200.267C158.126 201.422 155.565 202 152.61 202ZM149.315 195.295H152.326C153.766 195.295 154.992 195.063 156.005 194.599C157.028 194.135 157.805 193.335 158.335 192.199C158.875 191.062 159.144 189.481 159.144 187.455C159.144 185.428 158.87 183.847 158.321 182.71C157.781 181.574 156.985 180.774 155.934 180.31C154.893 179.846 153.614 179.614 152.099 179.614H149.315V195.295Z" fill="white"/>
<path d="M63.371 56.6873C63.4429 56.6639 70.8029 54.3628 85.9945 54.3628C101.238 54.3628 110.401 56.679 110.491 56.7024C110.575 56.7241 110.658 56.7342 110.74 56.7342C111.183 56.7342 111.586 56.4365 111.704 55.9883C111.842 55.4565 111.521 54.9147 110.989 54.7758C110.61 54.6772 101.517 52.3727 85.9945 52.3727C70.4416 52.3727 63.0683 54.6939 62.7605 54.7926C62.2388 54.9615 61.9511 55.5217 62.12 56.0435C62.2873 56.5669 62.8492 56.8546 63.371 56.6873Z" fill="#824CF3"/>
<path d="M62.1201 67.3853C62.289 67.9071 62.8509 68.1948 63.371 68.0275C63.4429 68.0041 70.8029 65.703 85.9945 65.703C101.238 65.703 110.401 68.0192 110.491 68.0426C110.575 68.0643 110.658 68.0744 110.74 68.0744C111.183 68.0744 111.586 67.7767 111.704 67.3285C111.842 66.7967 111.521 66.2532 110.989 66.116C110.61 66.019 101.517 63.7145 85.9945 63.7145C70.4417 63.7145 63.0683 66.0358 62.7606 66.1344C62.2371 66.3033 61.9512 66.8619 62.1201 67.3853Z" fill="#824CF3"/>
<path d="M62.1201 78.7255C62.289 79.2473 62.8509 79.535 63.371 79.3677C63.4429 79.3426 70.8029 77.0432 85.9945 77.0432C101.238 77.0432 110.401 79.3594 110.491 79.3828C110.575 79.4045 110.658 79.4146 110.74 79.4146C111.183 79.4146 111.586 79.1169 111.704 78.6704C111.842 78.1386 111.521 77.595 110.989 77.4562C110.61 77.3576 101.517 75.0531 85.9945 75.0531C70.4417 75.0531 63.0683 77.3726 62.7606 77.4713C62.2371 77.6419 61.9512 78.2021 62.1201 78.7255Z" fill="#824CF3"/>
<path d="M63.371 102.05C63.4429 102.026 70.8029 99.7253 85.9945 99.7253C101.238 99.7253 110.401 102.041 110.491 102.065C110.575 102.087 110.658 102.097 110.74 102.097C111.183 102.097 111.586 101.799 111.704 101.352C111.842 100.821 111.521 100.277 110.989 100.138C110.61 100.04 101.517 97.7352 85.9945 97.7352C70.4416 97.7352 63.0683 100.056 62.7605 100.155C62.2388 100.322 61.9511 100.884 62.12 101.406C62.2889 101.928 62.8492 102.217 63.371 102.05Z" fill="#824CF3"/>
<path d="M62.1201 112.746C62.289 113.268 62.8509 113.557 63.371 113.388C63.4429 113.365 70.8029 111.065 85.9945 111.065C101.238 111.065 110.401 113.382 110.491 113.403C110.575 113.427 110.658 113.437 110.74 113.437C111.183 113.437 111.586 113.139 111.704 112.691C111.842 112.159 111.521 111.616 110.989 111.477C110.61 111.378 101.517 109.074 85.9945 109.074C70.4417 109.074 63.0683 111.395 62.7606 111.494C62.2371 111.664 61.9512 112.224 62.1201 112.746Z" fill="#824CF3"/>
<path d="M126.074 56.6873C126.146 56.6639 133.504 54.3628 148.696 54.3628C163.939 54.3628 173.104 56.679 173.193 56.7024C173.278 56.7241 173.36 56.7342 173.442 56.7342C173.885 56.7342 174.29 56.4365 174.403 55.9883C174.54 55.4565 174.223 54.9147 173.691 54.7758C173.31 54.6772 164.219 52.3727 148.694 52.3727C133.141 52.3727 125.768 54.6939 125.46 54.7926C124.939 54.9615 124.651 55.5217 124.82 56.0435C124.989 56.5669 125.551 56.8546 126.074 56.6873Z" fill="#824CF3"/>
<path d="M124.823 67.3854C124.99 67.9071 125.552 68.1948 126.074 68.0276C126.146 68.0041 133.504 65.703 148.696 65.703C163.94 65.703 173.104 68.0192 173.193 68.0426C173.278 68.0643 173.36 68.0744 173.442 68.0744C173.885 68.0744 174.29 67.7767 174.403 67.3285C174.541 66.7967 174.223 66.2532 173.691 66.1161C173.31 66.0174 164.219 63.7129 148.694 63.7129C133.142 63.7129 125.768 66.0341 125.46 66.1328C124.94 66.3034 124.653 66.8619 124.823 67.3854Z" fill="#824CF3"/>
<path d="M124.823 78.7255C124.99 79.2473 125.552 79.535 126.074 79.3677C126.146 79.3426 133.504 77.0432 148.696 77.0432C163.94 77.0432 173.104 79.3594 173.193 79.3828C173.278 79.4045 173.36 79.4146 173.442 79.4146C173.885 79.4146 174.29 79.1169 174.403 78.6704C174.541 78.1386 174.223 77.595 173.691 77.4562C173.31 77.3576 164.219 75.0531 148.694 75.0531C133.142 75.0531 125.768 77.3726 125.46 77.4713C124.94 77.6419 124.653 78.2021 124.823 78.7255Z" fill="#824CF3"/>
<path d="M126.074 102.05C126.146 102.026 133.504 99.7253 148.696 99.7253C163.939 99.7253 173.104 102.041 173.193 102.065C173.278 102.087 173.36 102.097 173.442 102.097C173.885 102.097 174.29 101.799 174.403 101.352C174.54 100.821 174.223 100.277 173.691 100.138C173.31 100.04 164.219 97.7352 148.694 97.7352C133.141 97.7352 125.768 100.056 125.46 100.155C124.939 100.322 124.651 100.884 124.82 101.406C124.989 101.929 125.551 102.217 126.074 102.05Z" fill="#824CF3"/>
<path d="M124.823 112.746C124.99 113.268 125.552 113.557 126.074 113.388C126.146 113.365 133.504 111.065 148.696 111.065C163.94 111.065 173.104 113.382 173.193 113.403C173.278 113.427 173.36 113.437 173.442 113.437C173.885 113.437 174.29 113.139 174.403 112.691C174.541 112.159 174.223 111.616 173.691 111.477C173.31 111.378 164.219 109.074 148.694 109.074C133.142 109.074 125.768 111.395 125.46 111.494C124.94 111.664 124.653 112.224 124.823 112.746Z" fill="#824CF3"/>
<path d="M118.08 134.403C118.075 134.403 118.038 134.396 117.987 134.386C118.038 134.396 118.079 134.403 118.099 134.406C118.137 134.413 118.177 134.413 118.217 134.416C118.171 134.413 118.125 134.413 118.08 134.403Z" fill="#824CF3"/>
<path d="M174.382 134.244C170.993 133.062 161.158 130.129 147.02 130.129C130.772 130.129 119.823 135.86 118.256 136.126C116.689 135.86 105.738 130.129 89.4915 130.129C75.3535 130.129 65.5201 133.062 62.1302 134.244L61.8275 130.605C61.1051 130.689 60.4478 130.769 59.8491 130.848L60.2321 135.708C60.2538 136.027 60.4261 136.318 60.6987 136.489C60.8592 136.591 61.0415 136.639 61.2238 136.639C61.3526 136.639 61.4813 136.614 61.6034 136.564C61.7104 136.519 72.5506 132.119 89.4898 132.119C106.541 132.119 117.967 138.096 118.08 138.116C118.196 138.137 118.316 138.137 118.43 138.116C118.544 138.096 129.941 132.119 147.019 132.119C163.924 132.119 174.798 136.52 174.907 136.564C175.203 136.688 175.541 136.659 175.813 136.489C176.084 136.318 176.258 136.029 176.28 135.708L176.663 130.848C176.064 130.769 175.405 130.689 174.683 130.605L174.382 134.244Z" fill="#824CF3"/>
<path d="M193.48 78.1235C193.615 76.9729 193.294 75.8357 192.575 74.9243C191.96 74.1433 191.112 73.6316 190.16 73.4058L192.065 66.9372C192.741 64.6377 191.421 62.2178 189.123 61.5405C188.722 61.4218 188.311 61.3632 187.896 61.3632C185.981 61.3632 184.269 62.6459 183.728 64.4822L182.131 69.9073L182.292 42.0175C182.295 41.5308 181.944 41.1127 181.464 41.0308C181.335 41.0091 168.239 38.8066 149.527 38.8066C132.258 38.8066 120.254 41.9172 118.256 42.469C116.267 41.9172 104.268 38.8066 86.9846 38.8066C68.2744 38.8066 55.1782 41.0091 55.0494 41.0308C54.5695 41.1127 54.2183 41.5308 54.2216 42.0175L54.3821 69.9089L55.0946 72.3272L52.7851 64.4822C52.2449 62.6443 50.5307 61.3616 48.6176 61.3616C48.2028 61.3616 47.7897 61.4218 47.3884 61.5388C45.0906 62.2161 43.7711 64.636 44.4467 66.9355L46.3515 73.4042C45.4 73.6299 44.5504 74.1417 43.9366 74.9226C43.2175 75.8341 42.8948 76.9713 43.0302 78.1218C43.1874 79.4597 43.9467 80.5919 45.012 81.2726C44.915 81.3746 44.8079 81.4649 44.7193 81.5769C44.0002 82.4884 43.6791 83.6256 43.8146 84.7778C43.9718 86.1174 44.7293 87.2479 45.7963 87.9285C45.6976 88.0305 45.5906 88.1208 45.5036 88.2345C44.7845 89.146 44.4634 90.2832 44.5989 91.4354C44.7561 92.7733 45.5153 93.9055 46.5823 94.5845C45.7127 95.4926 45.226 96.7502 45.3832 98.0914C45.6408 100.279 47.4937 101.928 49.6945 101.928C49.8635 101.928 50.0357 101.918 50.208 101.898L59.9226 100.754C61.0749 100.617 62.1067 100.041 62.8258 99.1299C63.545 98.2185 63.8677 97.0813 63.7323 95.929C63.5751 94.5895 62.8058 93.469 61.7405 92.7884C62.2924 92.2164 62.682 91.5057 62.8576 90.7163C63.0249 90.7531 63.2004 90.7648 63.376 90.708C63.448 90.6845 70.808 88.3834 85.9996 88.3834C101.243 88.3834 110.406 90.6996 110.496 90.723C110.58 90.7447 110.663 90.7548 110.745 90.7548C111.189 90.7548 111.592 90.4571 111.709 90.0106C111.847 89.4788 111.526 88.9353 110.995 88.7965C110.615 88.6978 101.522 86.3933 85.9996 86.3933C70.9752 86.3933 63.6035 88.5523 62.8426 88.7898C62.5783 87.6659 61.891 86.7278 60.9595 86.1324C61.0598 86.0287 61.1685 85.9334 61.2605 85.818C61.9796 84.9066 62.3007 83.7694 62.1653 82.6171C62.0081 81.2776 61.2388 80.1571 60.1735 79.4781C61.0481 78.57 61.5415 77.3074 61.3826 75.9595C61.105 73.6048 58.9677 71.8689 56.5579 72.1532L56.3873 72.1733L56.2184 42.8587C59.3591 42.3854 71.1174 40.7933 86.9863 40.7933C105.263 40.7933 117.463 44.3053 117.973 44.4541C117.985 44.4575 117.998 44.4508 118.008 44.4541V44.9926C118.008 45.1314 118.12 45.2418 118.258 45.2418C118.395 45.2418 118.507 45.1314 118.507 44.9926V44.4541C118.518 44.4524 118.53 44.4575 118.542 44.4541C119.054 44.3053 131.262 40.7933 149.529 40.7933C165.389 40.7933 177.156 42.3871 180.297 42.8587L180.129 72.1733L179.959 72.1532C177.547 71.8689 175.412 73.6048 175.134 75.9595C174.974 77.3057 175.467 78.57 176.343 79.4764C175.276 80.1571 174.507 81.2776 174.351 82.6171C174.214 83.7694 174.537 84.9066 175.256 85.818C175.348 85.9317 175.459 86.027 175.559 86.1324C174.626 86.7294 173.938 87.6676 173.674 88.7914C173.169 88.661 164.108 86.3933 148.698 86.3933C133.145 86.3933 125.771 88.7128 125.464 88.8132C124.942 88.9804 124.654 89.5423 124.823 90.0641C124.99 90.5859 125.552 90.8735 126.074 90.7063C126.146 90.6829 133.504 88.3817 148.696 88.3817C163.939 88.3817 173.104 90.6979 173.193 90.7213C173.278 90.7431 173.36 90.7531 173.442 90.7531C173.515 90.7531 173.586 90.733 173.656 90.718C173.831 91.5073 174.221 92.2164 174.773 92.785C173.704 93.4673 172.937 94.5878 172.781 95.9274C172.646 97.0796 172.967 98.2168 173.686 99.1282C174.407 100.04 175.437 100.615 176.589 100.752L186.304 101.896C186.478 101.916 186.648 101.926 186.817 101.926C189.016 101.926 190.871 100.277 191.129 98.088C191.287 96.7485 190.799 95.4892 189.929 94.5828C190.998 93.9038 191.756 92.77 191.913 91.4321C192.05 90.2815 191.727 89.1443 191.008 88.2329C190.919 88.1208 190.814 88.0288 190.715 87.9268C191.782 87.2462 192.54 86.1157 192.697 84.7761C192.833 83.6239 192.512 82.4867 191.792 81.5752C191.704 81.4649 191.597 81.3729 191.5 81.2709C192.565 80.5936 193.324 79.4614 193.48 78.1235ZM47.9469 63.4487C48.1644 63.3851 48.3901 63.3517 48.6142 63.3517C49.6511 63.3517 50.5792 64.0474 50.8719 65.0441L53.0861 72.5646L51.1361 72.7954L48.3399 73.1232L46.3532 66.3753C45.987 65.1294 46.7027 63.8166 47.9469 63.4487ZM61.2605 97.8957C60.8709 98.3907 60.3106 98.7018 59.6868 98.777L49.9705 99.9209C48.6661 100.078 47.5071 99.1333 47.3566 97.8573C47.2044 96.5679 48.1309 95.3939 49.4203 95.2417L59.1366 94.0978C59.2303 94.0878 59.3239 94.0811 59.4159 94.0811C60.6083 94.0811 61.6117 94.9758 61.7505 96.1615C61.8241 96.787 61.6502 97.4024 61.2605 97.8957ZM58.9025 92.1211L49.1862 93.265C47.8817 93.4205 46.7228 92.479 46.5723 91.2013C46.4987 90.5758 46.6743 89.9587 47.0623 89.4654C47.4503 88.9721 48.0105 88.6593 48.636 88.5874L58.3506 87.4419C58.4443 87.4301 58.5379 87.4251 58.6299 87.4251C59.8223 87.4251 60.8274 88.3182 60.9662 89.5055C61.1184 90.7966 60.1936 91.9689 58.9025 92.1211ZM59.6919 84.5855C59.3022 85.0788 58.7436 85.3916 58.1182 85.4651L48.4035 86.6107C47.0957 86.7629 45.9385 85.823 45.7879 84.547C45.7144 83.9216 45.8883 83.3061 46.2779 82.8128C46.6676 82.3178 47.2262 82.0067 47.8516 81.9315L57.568 80.7876C57.6616 80.7775 57.7553 80.7709 57.8473 80.7709C59.038 80.7709 60.0414 81.6656 60.1819 82.8513C60.2571 83.4767 60.0832 84.0921 59.6919 84.5855ZM56.7853 74.1316C56.879 74.1199 56.9726 74.1149 57.0646 74.1149C58.257 74.1149 59.2604 75.0096 59.4009 76.1953C59.5531 77.4847 58.6266 78.6587 57.3372 78.8092L47.6208 79.9531C46.308 80.1103 45.1558 79.1671 45.0053 77.8894C44.9317 77.2656 45.1073 76.6502 45.4953 76.1552C45.8849 75.6618 46.4435 75.3508 47.069 75.2772L47.7312 75.1986C47.7329 75.1986 47.7346 75.1986 47.7362 75.1986L54.4875 74.4009L56.7853 74.1316ZM185.637 65.0441C185.929 64.049 186.857 63.3533 187.896 63.3533C188.12 63.3533 188.344 63.3868 188.561 63.4503C189.806 63.8182 190.521 65.1294 190.155 66.3769L188.168 73.1249L185.372 72.7971L183.422 72.5663L185.637 65.0441ZM189.153 97.8573C189.003 99.1349 187.851 100.078 186.54 99.9209L176.823 98.777C176.199 98.7018 175.641 98.3907 175.25 97.8957C174.862 97.4024 174.686 96.787 174.76 96.1615C174.9 94.9758 175.903 94.0811 177.094 94.0811C177.188 94.0811 177.28 94.0878 177.375 94.0978L187.09 95.2417C188.379 95.3939 189.306 96.5662 189.153 97.8573ZM187.322 93.265L177.606 92.1211C176.317 91.9689 175.39 90.7966 175.542 89.5072C175.683 88.3198 176.686 87.4268 177.878 87.4268C177.972 87.4268 178.062 87.4318 178.158 87.4435L187.872 88.5891C188.498 88.661 189.056 88.9737 189.446 89.4671C189.834 89.9604 190.011 90.5775 189.936 91.2013C189.786 92.479 188.633 93.4205 187.322 93.265ZM188.107 86.6107L178.39 85.4651C177.765 85.3916 177.206 85.0788 176.817 84.5855C176.429 84.0921 176.253 83.4767 176.327 82.8513C176.467 81.6656 177.47 80.7709 178.661 80.7709C178.753 80.7709 178.847 80.7775 178.94 80.7876L188.657 81.9315C189.281 82.0067 189.841 82.3178 190.23 82.8128C190.618 83.3061 190.794 83.9216 190.72 84.547C190.57 85.8247 189.406 86.7612 188.107 86.6107ZM188.888 79.9547L179.173 78.8109C177.884 78.6587 176.955 77.4847 177.109 76.197C177.248 75.0113 178.253 74.1166 179.444 74.1166C179.536 74.1166 179.629 74.1216 179.723 74.1333L182.018 74.4025L188.769 75.2003C188.771 75.2003 188.772 75.2003 188.776 75.2003L189.438 75.2789C190.062 75.3524 190.62 75.6635 191.011 76.1568C191.399 76.6519 191.575 77.2673 191.501 77.8911C191.354 79.1704 190.199 80.1103 188.888 79.9547Z" fill="#824CF3"/>
<path d="M118.254 51.197C118.391 51.197 118.503 51.085 118.503 50.9479V47.9728C118.503 47.834 118.391 47.7236 118.254 47.7236C118.117 47.7236 118.005 47.834 118.005 47.9728V50.9479C118.005 51.085 118.117 51.197 118.254 51.197Z" fill="#824CF3"/>
<path d="M118.005 62.8516C118.005 62.9888 118.117 63.0991 118.254 63.0991C118.391 63.0991 118.503 62.9888 118.503 62.8516V59.8749C118.503 59.7377 118.391 59.6273 118.254 59.6273C118.117 59.6273 118.005 59.7377 118.005 59.8749V62.8516Z" fill="#824CF3"/>
<path d="M118.005 56.8997C118.005 57.0369 118.117 57.1472 118.254 57.1472C118.391 57.1472 118.503 57.0369 118.503 56.8997V53.9246C118.503 53.7858 118.391 53.6754 118.254 53.6754C118.117 53.6754 118.005 53.7858 118.005 53.9246V56.8997Z" fill="#824CF3"/>
<path d="M118.005 104.513C118.005 104.65 118.117 104.761 118.254 104.761C118.391 104.761 118.503 104.65 118.503 104.513V101.538C118.503 101.401 118.391 101.291 118.254 101.291C118.117 101.291 118.005 101.401 118.005 101.538V104.513Z" fill="#824CF3"/>
<path d="M118.005 116.417C118.005 116.556 118.117 116.666 118.254 116.666C118.391 116.666 118.503 116.556 118.503 116.417V113.442C118.503 113.303 118.391 113.193 118.254 113.193C118.117 113.193 118.005 113.303 118.005 113.442V116.417Z" fill="#824CF3"/>
<path d="M118.005 68.8035C118.005 68.9406 118.117 69.051 118.254 69.051C118.391 69.051 118.503 68.9406 118.503 68.8035V65.8284C118.503 65.6913 118.391 65.5792 118.254 65.5792C118.117 65.5792 118.005 65.6913 118.005 65.8284V68.8035Z" fill="#824CF3"/>
<path d="M118.005 128.322C118.005 128.46 118.117 128.57 118.254 128.57C118.391 128.57 118.503 128.46 118.503 128.322V125.347C118.503 125.21 118.391 125.1 118.254 125.1C118.117 125.1 118.005 125.21 118.005 125.347V128.322Z" fill="#824CF3"/>
<path d="M118.005 122.371C118.005 122.508 118.117 122.618 118.254 122.618C118.391 122.618 118.503 122.508 118.503 122.371V119.395C118.503 119.257 118.391 119.146 118.254 119.146C118.117 119.146 118.005 119.257 118.005 119.395V122.371Z" fill="#824CF3"/>
<path d="M118.005 98.563C118.005 98.7001 118.117 98.8105 118.254 98.8105C118.391 98.8105 118.503 98.7001 118.503 98.563V95.5879C118.503 95.4507 118.391 95.3404 118.254 95.3404C118.117 95.3404 118.005 95.4507 118.005 95.5879V98.563Z" fill="#824CF3"/>
<path d="M118.005 110.467C118.005 110.604 118.117 110.714 118.254 110.714C118.391 110.714 118.503 110.604 118.503 110.467V107.49C118.503 107.353 118.391 107.242 118.254 107.242C118.117 107.242 118.005 107.353 118.005 107.49V110.467Z" fill="#824CF3"/>
<path d="M118.005 74.7537C118.005 74.8909 118.117 75.0029 118.254 75.0029C118.391 75.0029 118.503 74.8909 118.503 74.7537V71.7786C118.503 71.6415 118.391 71.5311 118.254 71.5311C118.117 71.5311 118.005 71.6415 118.005 71.7786V74.7537Z" fill="#824CF3"/>
<path d="M118.005 80.7073C118.005 80.8445 118.117 80.9548 118.254 80.9548C118.391 80.9548 118.503 80.8445 118.503 80.7073V77.7305C118.503 77.5934 118.391 77.483 118.254 77.483C118.117 77.483 118.005 77.5934 118.005 77.7305V80.7073Z" fill="#824CF3"/>
<path d="M118.005 92.6111C118.005 92.7482 118.117 92.8586 118.254 92.8586C118.391 92.8586 118.503 92.7482 118.503 92.6111V89.636C118.503 89.4972 118.391 89.3868 118.254 89.3868C118.117 89.3868 118.005 89.4972 118.005 89.636V92.6111Z" fill="#824CF3"/>
<path d="M118.005 86.6609C118.005 86.798 118.117 86.9084 118.254 86.9084C118.391 86.9084 118.503 86.798 118.503 86.6609V83.6841C118.503 83.547 118.391 83.4366 118.254 83.4366C118.117 83.4366 118.005 83.547 118.005 83.6841V86.6609Z" fill="#824CF3"/>
<path d="M179.81 127.643C176.281 127.11 164.99 125.603 149.527 125.603C133.06 125.603 121.36 130.311 118.505 131.58V131.296C118.505 131.159 118.393 131.048 118.256 131.048C118.119 131.048 118.007 131.159 118.007 131.296V131.58C115.157 130.314 103.449 125.603 86.9847 125.603C71.5221 125.603 60.2304 127.108 56.7018 127.643L56.5496 101.148L54.5612 101.384L54.7184 128.814C54.72 129.108 54.8505 129.386 55.0762 129.573C55.302 129.761 55.5997 129.839 55.8873 129.787C56.0111 129.766 68.4601 127.593 86.9847 127.593C105.13 127.593 117.303 133.431 117.813 133.681C117.896 133.721 117.992 133.754 118.085 133.771C118.142 133.781 118.199 133.786 118.258 133.786C118.321 133.786 118.383 133.781 118.445 133.768C118.532 133.751 118.622 133.721 118.701 133.682C119.209 133.433 131.369 127.593 149.529 127.593C168.053 127.593 180.502 129.767 180.628 129.787C180.916 129.839 181.213 129.761 181.437 129.573C181.661 129.386 181.794 129.108 181.795 128.814L181.954 101.384L179.966 101.148L179.81 127.643Z" fill="#824CF3"/>
<path d="M83.5061 28.826C82.9743 30.9766 82.6566 33.2126 82.5897 35.5087C83.2084 35.5171 83.8757 35.5305 84.5915 35.5472C84.655 33.5069 84.9159 31.5168 85.3691 29.5986C89.4162 31.0502 94.5821 31.5101 101.149 30.0803C118.913 26.2155 125.852 23.3825 128.255 17.8754C130.591 22.3423 131.874 32.1607 136.168 36.7563C139.386 36.4084 143.069 36.0823 147.358 35.8415C148.867 33.3798 150.487 29.3511 149.04 24.6786C146.641 16.9389 139.816 0.944583 132.57 7.13061C132.57 7.13061 131.23 7.75774 129.808 8.82804C129.392 8.59224 128.971 8.36814 128.544 8.15241C126.347 4.83112 119.666 -3.16605 108.548 1.34762C94.7075 6.96504 82.006 18.8387 71.4368 13.5524C71.4368 13.5524 73.6995 24.1869 83.5061 28.826Z" fill="url(#paint0_linear_2_45)"/>
</g>
<defs>
<linearGradient id="paint0_linear_2_45" x1="107.312" y1="8.76977" x2="110.52" y2="36.7563" gradientUnits="userSpaceOnUse">
<stop stop-color="#824DF4"/>
<stop offset="1" stop-color="#FB15F2"/>
</linearGradient>
<clipPath id="clip0_2_45">
<rect width="230" height="221" fill="white"/>
</clipPath>
</defs>
</svg>
